<svg width="206" height="66" viewBox="0 0 206 66" fill="none" xmlns="http://www.w3.org/2000/svg">
<path d="M92.38 48H99.36L102.16 40.48H115.12L117.92 48H124.9L111.66 15H105.64L92.38 48ZM104.38 34.8L108.64 23.74L112.92 34.8H104.38ZM135.961 48.64C136.788 48.64 137.628 48.5333 138.481 48.32C139.348 48.1067 140.128 47.8133 140.821 47.44L139.281 42.52C138.708 42.9467 138.095 43.16 137.441 43.16C136.241 43.16 135.641 42.3733 135.641 40.8V32.18H140.141V27.52H135.641V19.84H129.501V27.52H126.761V32.18H129.501V41.24C129.501 43.5733 130.068 45.3933 131.201 46.7C132.348 47.9933 133.935 48.64 135.961 48.64ZM146.128 48H152.268V13.6H146.128V48ZM168.027 48.64C169.427 48.64 170.734 48.3533 171.947 47.78C173.174 47.1933 174.254 46.3667 175.187 45.3V48H181.327V27.52H175.187V30.02C174.374 29.0333 173.341 28.2667 172.087 27.72C170.834 27.16 169.481 26.88 168.027 26.88C166.054 26.88 164.301 27.36 162.767 28.32C161.247 29.2667 160.054 30.56 159.187 32.2C158.321 33.8267 157.887 35.6667 157.887 37.72C157.887 39.8267 158.341 41.7067 159.247 43.36C160.154 45 161.367 46.2933 162.887 47.24C164.421 48.1733 166.134 48.64 168.027 48.64ZM169.847 43.42C168.261 43.42 166.947 42.8867 165.907 41.82C164.867 40.7533 164.347 39.4 164.347 37.76C164.347 36.12 164.867 34.7667 165.907 33.7C166.961 32.6333 168.274 32.1 169.847 32.1C171.434 32.1 172.741 32.6333 173.767 33.7C174.807 34.7533 175.327 36.1067 175.327 37.76C175.327 39.4133 174.814 40.7733 173.787 41.84C172.761 42.8933 171.447 43.42 169.847 43.42ZM194.193 48.64C197.02 48.64 199.22 48.04 200.793 46.84C202.38 45.6267 203.173 43.9067 203.173 41.68C203.173 40.4667 202.947 39.5 202.493 38.78C202.04 38.0467 201.413 37.4533 200.613 37C199.827 36.5467 198.92 36.1333 197.893 35.76C197.267 35.5333 196.607 35.2867 195.913 35.02C195.233 34.74 194.653 34.42 194.173 34.06C193.707 33.7 193.473 33.2867 193.473 32.82C193.473 32.3133 193.7 31.8933 194.153 31.56C194.607 31.2267 195.213 31.06 195.973 31.06C197.32 31.06 198.86 31.6133 200.593 32.72L202.693 28.78C200.16 27.54 197.907 26.92 195.933 26.92C194.307 26.92 192.867 27.1933 191.613 27.74C190.373 28.2867 189.4 29.0467 188.693 30.02C187.987 30.98 187.633 32.0933 187.633 33.36C187.633 34.4133 187.867 35.28 188.333 35.96C188.813 36.6267 189.433 37.18 190.193 37.62C190.953 38.06 191.747 38.4533 192.573 38.8C194.013 39.4 195.073 39.8733 195.753 40.22C196.433 40.5533 196.773 41.1133 196.773 41.9C196.773 42.6067 196.533 43.1533 196.053 43.54C195.587 43.9133 194.967 44.1 194.193 44.1C192.3 44.1 190.473 43.1667 188.713 41.3L186.133 45.42C187.973 47.5667 190.66 48.64 194.193 48.64Z" fill="black"/>
<path d="M41.711 3.38744C41.0883 2.34648 40.2407 1.49217 39.2445 0.900928C38.2482 0.309684 37.1344 0.000167355 36.0028 0C34.8712 -0.00016722 33.7573 0.309016 32.7608 0.900009C31.7644 1.49092 30.9167 2.34506 30.2937 3.38576L1.13294 52.34C0.245345 53.8169 -0.139912 55.592 0.0454624 57.3514C0.230761 59.1109 0.974688 60.7416 2.14566 61.9553C2.16215 61.9747 2.18053 61.9921 2.20044 62.0072C2.23386 62.0376 2.26576 62.0679 2.29764 62.0981L2.29784 62.0983C2.3369 62.1354 2.37593 62.1724 2.41772 62.2097C3.09966 62.8643 3.89859 63.3542 4.76294 63.6476C5.43522 63.8847 6.13721 64.0034 6.84308 63.9992H21.6001C23.6372 63.999 25.5907 63.1074 27.0311 61.5205C28.4715 59.9336 29.2808 57.7814 29.281 55.5373V49.8266H24.4073C23.785 49.8289 23.1737 49.6452 22.6387 49.295C22.1037 48.9448 21.6648 48.4413 21.369 47.8381C21.0732 47.2348 20.9315 46.5545 20.9589 45.8695C20.9864 45.1845 21.182 44.5206 21.5249 43.9484L30.8103 28.3647C30.818 28.3462 30.8271 28.3286 30.8377 28.3119C31.3503 27.2748 31.9391 26.2855 32.598 25.354L33.1215 24.4786C33.4012 23.9994 33.7781 23.5983 34.2223 23.3068L34.2277 23.3007C34.4612 23.1445 34.7114 23.0207 34.9727 22.9326L34.9753 22.9324L34.9767 22.9316L34.9775 22.931L34.9784 22.9298L34.979 22.9287L34.9795 22.926C35.6932 22.6795 36.4605 22.6975 37.1639 22.9776C37.8673 23.2576 38.468 23.7839 38.8739 24.476L41.1576 28.3094C41.1611 28.3132 41.1645 28.3188 41.1679 28.3245C41.1713 28.3301 41.1747 28.3358 41.1782 28.3396L48.1798 40.074L48.1935 40.0891L50.4909 43.9459C50.5312 44.0137 50.5654 44.0731 50.5996 44.1409C50.6432 44.2221 50.6818 44.3077 50.7192 44.3909C50.73 44.415 50.7408 44.4389 50.7515 44.4623L50.7554 44.471C51.0125 45.0985 51.1074 45.7921 51.0295 46.4753C50.9315 47.3981 50.5291 48.2491 49.8987 48.8664C49.2684 49.4837 48.4541 49.8241 47.6107 49.8232H42.7371V55.5373C42.7372 57.6359 43.4455 59.6596 44.7243 61.2151C46.0031 62.7705 47.7611 63.7467 49.6567 63.954H49.684C49.9277 63.9845 50.1728 63.9996 50.4179 63.9992H50.7378L65.1728 64C66.4047 63.9979 67.6132 63.6293 68.6706 62.9329C69.728 62.2366 70.595 61.2385 71.18 60.0441C71.7649 58.8497 72.0461 57.5034 71.9938 56.1474C71.9415 54.7915 71.5577 53.4763 70.8829 52.3409L62.4066 38.1272C62.4066 38.1245 62.4046 38.1213 62.4046 38.1213C62.4025 38.1187 62.3997 38.117 62.3997 38.1122C34.1222 -9.34291 84.4886 75.1809 41.711 3.38744Z" fill="#EE2FBE"/>
</svg>
